<svg xmlns="http://www.w3.org/2000/svg" width="189.996" height="70.214" viewBox="0 0 189.996 70.214">
  <g id="Logo" transform="translate(-1 -2.392)">
    <g id="Gruppe_3" data-name="Gruppe 3" transform="translate(1 2.392)">
      <path id="Pfad_1" data-name="Pfad 1" d="M24.911,159.7l-8.327-1.319L1,167.913l23.911,3.755Z" transform="translate(-1 -105.705)" fill="#878787"/>
      <path id="Pfad_2" data-name="Pfad 2" d="M45.436,23.158,23.366,2.392,7.636,11.977,29.791,32.821Z" transform="translate(-5.396 -2.392)" fill="#fabe19"/>
      <g id="Gruppe_2" data-name="Gruppe 2" transform="translate(50.204 19.913)">
        <g id="Gruppe_1" data-name="Gruppe 1">
          <path id="Pfad_3" data-name="Pfad 3" d="M163.58,95.285l-9.011-11.933h-.214V95.285h-4.677V67.7c2.1-.122,4.5-.163,7.766-.163,6.008,0,10.127,2,10.127,7.479,0,4.414-3.562,7.233-8.282,7.682.815.941,1.716,1.962,2.532,2.985l7.638,9.6ZM156.8,71.173c-.9,0-1.759.041-2.446.082V80c.429.04,1.244.082,2.274.082,3.776,0,6.051-1.84,6.051-4.579C162.679,72.481,160.7,71.173,156.8,71.173Z" transform="translate(-149.677 -65.452)" fill="#878787"/>
          <path id="Pfad_4" data-name="Pfad 4" d="M231.029,99.183H217.383c-.086,4.7,2.06,6.825,6.35,6.825a18.037,18.037,0,0,0,6.48-1.268V108.3A22.488,22.488,0,0,1,223,109.482c-6.65,0-10.3-3.27-10.3-10.423,0-6.13,3.519-10.707,9.741-10.707,6.093,0,8.711,3.965,8.711,8.786A19.114,19.114,0,0,1,231.029,99.183Zm-8.754-7.6c-2.574,0-4.377,1.8-4.763,4.536h9.054A4.04,4.04,0,0,0,222.275,91.581Z" transform="translate(-191.423 -79.24)" fill="#878787"/>
          <path id="Pfad_5" data-name="Pfad 5" d="M295.558,109.072V96c0-2.535-.73-4.005-3.175-4.005-3.219,0-5.578,3.229-5.578,7.274v9.807h-4.591V88.762h4.376a25.376,25.376,0,0,1-.3,3.964l.086.041a7.759,7.759,0,0,1,7.38-4.414c4.849,0,6.394,2.9,6.394,6.5v14.221Z" transform="translate(-237.459 -79.24)" fill="#878787"/>
          <path id="Pfad_6" data-name="Pfad 6" d="M368.157,109.875a25.481,25.481,0,0,1,.343-3.963l-.086-.042a7.8,7.8,0,0,1-7.38,4.415c-4.849,0-6.394-2.9-6.394-6.5V89.564h4.549v13.078c0,2.533.73,4.005,3.218,4.005,3.176,0,5.578-3.229,5.578-7.274V89.564h4.549v20.311Z" transform="translate(-285.43 -80.042)" fill="#878787"/>
          <path id="Pfad_7" data-name="Pfad 7" d="M427.893,109.482a18.462,18.462,0,0,1-4.463-.531l.043-3.8a12.972,12.972,0,0,0,4.635.816c2.489,0,4.2-1.021,4.2-2.656,0-4.127-9.441-1.716-9.441-8.663,0-3.556,2.961-6.294,8.755-6.294a19.534,19.534,0,0,1,4.162.491l-.128,3.474a14.234,14.234,0,0,0-4.291-.654c-2.489,0-3.82.939-3.82,2.492,0,3.923,9.527,2,9.527,8.541C437.076,106.539,433.686,109.482,427.893,109.482Z" transform="translate(-330.622 -79.24)" fill="#878787"/>
          <path id="Pfad_8" data-name="Pfad 8" d="M485.136,109.482c-5.922,0-9.784-3.148-9.784-10.3,0-6.131,4.163-10.83,10.642-10.83,5.708,0,9.741,3.024,9.741,10.176C495.734,104.782,491.444,109.482,485.136,109.482Zm.471-17.451c-2.788,0-5.492,2.043-5.492,6.7,0,4.576,1.889,6.988,5.45,6.988,2.961,0,5.449-2.207,5.449-6.906C491.014,94.483,489.255,92.031,485.607,92.031Z" transform="translate(-365.381 -79.24)" fill="#878787"/>
          <path id="Pfad_9" data-name="Pfad 9" d="M550.068,91.2V61.365h4.592V91.2Z" transform="translate(-414.868 -61.365)" fill="#878787"/>
        </g>
      </g>
      <path id="Pfad_10" data-name="Pfad 10" d="M76.948,77.619v34.343l15.317-9.333.029-34.487Z" transform="translate(-51.303 -45.94)" fill="#878787"/>
    </g>
    <g id="Gruppe_4" data-name="Gruppe 4" transform="translate(101.51 57.807)">
      <path id="Pfad_11" data-name="Pfad 11" d="M298.658,179.232V168.976h5.409v1.382h-3.753v2.917h3.571v1.352h-3.571v3.191h3.753v1.413Z" transform="translate(-298.658 -168.14)" fill="#878787"/>
      <path id="Pfad_12" data-name="Pfad 12" d="M325.494,184.537a10.005,10.005,0,0,1,.106-1.49h-.015a2.758,2.758,0,0,1-2.628,1.641c-1.717,0-2.249-1.094-2.249-2.416v-5.288h1.61v4.847c0,.942.259,1.5,1.125,1.5,1.14,0,1.975-1.2,1.975-2.72v-3.632h1.626v7.552Z" transform="translate(-313.262 -173.445)" fill="#878787"/>
      <path id="Pfad_13" data-name="Pfad 13" d="M350.353,178.144c-1.5-.289-2.234.76-2.234,3.023v3.069h-1.626v-7.552h1.55a10.154,10.154,0,0,1-.152,1.672h.03a2.309,2.309,0,0,1,2.507-1.809Z" transform="translate(-330.341 -173.145)" fill="#878787"/>
      <path id="Pfad_14" data-name="Pfad 14" d="M363.5,184.391c-2.1,0-3.464-1.17-3.464-3.829a3.742,3.742,0,0,1,3.768-4.027c2.021,0,3.449,1.124,3.449,3.784A3.779,3.779,0,0,1,363.5,184.391Zm.167-6.488c-.988,0-1.945.76-1.945,2.492,0,1.7.669,2.6,1.93,2.6,1.048,0,1.93-.821,1.93-2.568C365.584,178.814,364.961,177.9,363.669,177.9Z" transform="translate(-339.312 -173.147)" fill="#878787"/>
      <path id="Pfad_15" data-name="Pfad 15" d="M389.4,184.345a5.613,5.613,0,0,1-1.14-.091v3.692h-1.626V176.687h1.535a11.209,11.209,0,0,1-.091,1.413h.03a2.568,2.568,0,0,1,2.446-1.565c1.793,0,2.781,1.276,2.781,3.556C393.334,182.749,391.921,184.345,389.4,184.345Zm.729-6.473c-1.215,0-1.869,1.429-1.869,2.72v2.325a4.008,4.008,0,0,0,1.186.152c1.291,0,2.173-.79,2.173-2.826C391.617,178.723,391.146,177.872,390.128,177.872Z" transform="translate(-356.926 -173.147)" fill="#878787"/>
      <path id="Pfad_16" data-name="Pfad 16" d="M416.416,180.607h-4.8c-.046,1.717.684,2.477,2.234,2.477a5.669,5.669,0,0,0,2.173-.441l.213,1.261a7.6,7.6,0,0,1-2.674.487c-2.325,0-3.617-1.216-3.617-3.875,0-2.264,1.292-3.981,3.48-3.981a2.846,2.846,0,0,1,3.054,3.146A7.08,7.08,0,0,1,416.416,180.607Zm-3.085-2.856a1.751,1.751,0,0,0-1.686,1.732h3.206A1.5,1.5,0,0,0,413.331,177.751Z" transform="translate(-372.365 -173.147)" fill="#878787"/>
      <path id="Pfad_17" data-name="Pfad 17" d="M447.973,179.116c-3.3,0-5.136-1.9-5.136-5,0-3.267,1.93-5.546,5.591-5.546A9.983,9.983,0,0,1,451.3,169l-.35,1.519a7.182,7.182,0,0,0-2.644-.5c-2.628,0-3.692,1.808-3.692,3.874,0,2.37,1.292,3.753,3.556,3.753a5.07,5.07,0,0,0,1.58-.243v-3.723h1.656v4.817A9.839,9.839,0,0,1,447.973,179.116Z" transform="translate(-394.152 -167.872)" fill="#878787"/>
      <path id="Pfad_18" data-name="Pfad 18" d="M484.385,184.239v-4.817c0-.927-.228-1.535-1.094-1.535-.972,0-1.945,1.079-1.945,2.75v3.6h-1.6v-4.817c0-.866-.182-1.535-1.094-1.535-1.033,0-1.93,1.155-1.93,2.75v3.6H475.1v-7.552h1.55a10.3,10.3,0,0,1-.106,1.489l.03.015a2.724,2.724,0,0,1,2.552-1.656,1.929,1.929,0,0,1,2.1,1.626,2.755,2.755,0,0,1,2.522-1.626c1.443,0,2.249.79,2.249,2.492v5.212Z" transform="translate(-415.521 -173.147)" fill="#878787"/>
      <path id="Pfad_19" data-name="Pfad 19" d="M517.076,177.715a10.2,10.2,0,0,1-2.69-.319V166.5h1.626v3.48a7.424,7.424,0,0,1-.136,1.443h.03a2.516,2.516,0,0,1,2.4-1.535c1.793,0,2.781,1.276,2.781,3.556C521.087,176.058,519.582,177.715,517.076,177.715Zm.8-6.473c-1.215,0-1.869,1.413-1.869,2.69v2.34a3.874,3.874,0,0,0,1.185.152c1.291,0,2.173-.79,2.173-2.826C519.37,172.078,518.9,171.242,517.881,171.242Z" transform="translate(-441.541 -166.501)" fill="#878787"/>
      <path id="Pfad_20" data-name="Pfad 20" d="M546,179.232v-4.6h-4.847v4.6H539.5V168.976h1.656v4.239H546v-4.239h1.641v10.256Z" transform="translate(-458.172 -168.14)" fill="#878787"/>
    </g>
  </g>
</svg>
