<svg width="243" height="243" viewBox="0 0 243 243" fill="none" xmlns="http://www.w3.org/2000/svg">
<g clip-path="url(#clip0_1_4)">
<path d="M0 0C80.19 0 160.38 0 243 0C243 80.19 243 160.38 243 243C162.81 243 82.62 243 0 243C0 162.81 0 82.62 0 0Z" fill="#2471BC"/>
<path d="M0 0C80.19 0 160.38 0 243 0C243 80.19 243 160.38 243 243C162.81 243 82.62 243 0 243C0 162.81 0 82.62 0 0ZM86 15C85.3286 15.2303 84.6571 15.4605 83.9653 15.6978C54.9436 25.9784 31.5402 47.6361 18.25 75.3125C11.3971 90.1976 7.5955 106.306 7.6875 122.688C7.69241 123.735 7.69733 124.782 7.70239 125.861C8.15062 155.782 21.3008 182.737 42 204C42.6007 204.639 43.2014 205.279 43.8203 205.938C45.1646 207.34 46.575 208.679 48 210C48.66 210 49.32 210 50 210C50 210.66 50 211.32 50 212C52.1749 213.666 54.3366 215.19 56.625 216.688C57.3058 217.134 57.9866 217.58 58.688 218.04C83.6726 234.136 114.112 240.503 143.569 234.871C147.1 234.068 150.551 233.1 154 232C154.684 231.786 155.369 231.571 156.074 231.351C170.298 226.767 182.69 219.81 194 210C194.808 209.336 195.616 208.672 196.449 207.988C216.43 191.019 227.811 167.284 233 142C233.197 141.056 233.394 140.113 233.598 139.141C236.009 120.319 233.72 101.506 227.34 83.7656C225.383 78.2658 225.383 78.2658 225 76C226.512 73.7734 226.512 73.7734 228.688 71.375C236.822 61.5451 238.089 52.507 237.228 40.0439C236.726 35.5352 235.3 31.8724 233 28C232.599 27.2975 232.198 26.5949 231.785 25.8711C226.851 18.3333 218.633 13.2764 210 11C198.077 9.92739 188.663 11.0458 179.188 18.8125C178.5 19.4377 177.813 20.0629 177.105 20.707C175 22 175 22 172.449 21.8125C170 21 170 21 166.625 19.1875C160.497 15.9958 153.693 14.5555 147 13C146.293 12.819 145.587 12.6381 144.858 12.4517C136.974 10.61 129.053 10.6026 121 10.625C119.902 10.6258 119.902 10.6258 118.781 10.6266C107.467 10.6653 96.7722 11.2989 86 15Z" fill="#FBFCFC"/>
<path d="M161 53C160.962 61.5732 158.589 70.3431 152.41 76.6133C147.68 79.9234 143.007 80.1269 137.398 80.2109C136.103 80.2393 134.807 80.2677 133.473 80.2969C131.432 80.3378 129.392 80.3748 127.352 80.4014C112.876 80.6059 101.385 83.2128 90.3125 93C81.6198 102.209 78.5981 113.946 78.7266 126.238C79.5476 137.534 84.0909 148.752 92.6523 156.355C104.005 164.905 114.965 167.276 129 166C140.728 163.476 149.89 156.464 157 147C163.806 136.276 163.17 125.371 162.834 113.09C162.806 111.278 162.806 111.278 162.777 109.43C162.735 107.794 162.735 107.794 162.691 106.125C163.17 101.283 165.232 97.1819 168.813 93.875C175.717 88.2808 185.354 86.7133 194 87C194.792 89.208 195.584 91.4164 196.375 93.625C196.816 94.8548 197.257 96.0845 197.711 97.3516C198.136 98.5555 198.562 99.7595 199 101C199.364 101.998 199.727 102.995 200.102 104.023C205.97 123.467 201.375 145.516 192 163C182.252 180.039 167.398 193.098 149 200C147.443 200.59 147.443 200.59 145.855 201.191C126.35 207.474 104.292 205.551 86.0547 196.586C85.0466 196.063 84.0386 195.539 83 195C81.7045 194.339 81.7045 194.339 80.3828 193.664C61.6804 183.327 49.4722 165.412 42.5 145.625C37.3102 125.693 40.0985 101.575 49.8594 83.5703C58.1144 69.7159 68.1631 60.1913 82 52C82.6213 51.6197 83.2427 51.2394 83.8828 50.8477C107.481 37.673 138.042 39.9554 161 53Z" fill="#FAFBFB"/>
<path d="M220 15C220.705 15.4009 221.41 15.8018 222.137 16.2149C229.644 21.148 234.769 29.3708 237 38C238.382 50.7188 237.027 60.8413 229.312 71.25C218.898 83.4191 205.1 85.3694 190.079 87.9331C176.555 89.9372 176.555 89.9372 166 98C164.09 101.92 163.793 104.961 163.91 109.297C163.93 110.503 163.95 111.71 163.971 112.953C164.032 115.469 164.097 117.985 164.166 120.5C164.276 127.633 163.878 133.441 161 140C160.72 140.689 160.44 141.378 160.152 142.087C155.954 152.082 147.577 159.365 138 164C137.317 164.339 136.634 164.678 135.93 165.027C126.85 168.773 114.395 168.302 105.242 165.051C101.178 163.146 97.5682 160.708 94 158C93.1621 157.379 92.3242 156.757 91.4609 156.117C82.981 148.822 78.7014 137.317 77.6562 126.414C77.3019 112.802 81.3835 101.779 90.6875 91.75C102.55 80.5449 115.516 79.6881 131.019 79.5437C141.895 79.5103 141.895 79.5103 152 76C153.865 74.2421 153.865 74.2421 154.875 72.125C155.244 71.4676 155.612 70.8102 155.992 70.1328C159.047 63.6678 160.446 57.0571 161.969 50.0996C165.359 35.2407 171.006 23.5918 184 15C194.645 8.59519 209.311 8.85627 220 15Z" fill="#24B94B"/>
</g>
<defs>
<clipPath id="clip0_1_4">
<rect width="243" height="243" fill="white"/>
</clipPath>
</defs>
</svg>
