<svg width="154" height="32" viewBox="0 0 154 32" fill="none" xmlns="http://www.w3.org/2000/svg">
<g clip-path="url(#clip0_1908_8170)">
<path d="M70.8525 31.6682C71.2652 31.8898 71.7692 32.0005 72.3665 32.0005H72.3687C72.8705 32.0005 73.3136 31.9223 73.7003 31.7659C74.087 31.6095 74.3932 31.3684 74.617 31.0447C74.8407 30.7189 74.9537 30.3084 74.9537 29.8066H74.289C74.289 30.1758 74.2129 30.4778 74.0587 30.7146C73.9045 30.9513 73.6851 31.1273 73.4005 31.2446C73.116 31.3619 72.7771 31.4205 72.3839 31.4205C71.956 31.4205 71.5867 31.3402 71.2739 31.1816C70.9611 31.0209 70.72 30.771 70.5483 30.43C70.3767 30.089 70.292 29.6415 70.292 29.0897V28.9116C70.292 28.3468 70.3767 27.8906 70.5483 27.5409C70.72 27.189 70.9611 26.9327 71.2739 26.7676C71.5867 26.6025 71.9538 26.5199 72.3752 26.5199C72.7684 26.5199 73.1051 26.5786 73.3875 26.6959C73.6699 26.8132 73.8871 26.9891 74.0413 27.2259C74.1956 27.4605 74.2716 27.7646 74.2716 28.1339H74.9537C74.9537 27.6386 74.8451 27.2303 74.6257 26.9088C74.4084 26.5873 74.1065 26.3462 73.722 26.1832C73.3375 26.0203 72.8922 25.9399 72.3861 25.9399C71.5041 25.9399 70.8177 26.1919 70.3289 26.6959C69.8402 27.1999 69.5947 27.958 69.5947 28.9702C69.5947 29.648 69.7012 30.2106 69.914 30.6603C70.1269 31.1099 70.4397 31.4466 70.8525 31.6682Z" fill="#C7E3D0"/>
<path d="M53.7176 31.9093H54.5626L54.5561 26.0464H53.7176V31.9093Z" fill="#C7E3D0"/>
<path d="M55.0709 31.9071L55.6096 31.1794H57.7276V31.9071H55.0709Z" fill="#C7E3D0"/>
<path d="M39.1374 26.0464H41.9809L41.9765 31.9093H41.1467V26.7741H39.1374V26.0464Z" fill="#C7E3D0"/>
<path d="M42.4935 26.7741L43.0323 26.0464H43.988V26.7741H42.4935Z" fill="#C7E3D0"/>
<path d="M21.4704 29.2874H18.5314V31.9071H17.6929V27.2194L18.5314 27.8407V28.5749H21.4704V29.2874Z" fill="#C7E3D0"/>
<path d="M21.831 26.0464V26.7763L17.6929 26.7806V26.0464H21.831Z" fill="#C7E3D0"/>
<path d="M19.0375 31.9071L19.5762 31.1794H21.9505V31.9071H19.0375Z" fill="#C7E3D0"/>
<path d="M60.1366 26.0464H60.9751V31.9093H60.1366V26.0464Z" fill="#C7E3D0"/>
<path d="M61.4899 31.9071L62.0286 31.1794H64.1531V31.9071H61.4899Z" fill="#C7E3D0"/>
<path d="M51.4259 31.9093H50.5461L47.9568 26.0464H48.7627L51.4259 31.9093Z" fill="#C7E3D0"/>
<path d="M47.3203 27.4019H48.1219L46.1408 31.9093H45.2784L47.3203 27.4019Z" fill="#C7E3D0"/>
<path d="M25.4435 31.9093H24.605V27.5605H25.4435V31.9093Z" fill="#C7E3D0"/>
<path d="M29.1798 30.4148V26.0464H30.0161V31.9093H29.3297L24.6245 26.0464H25.6607L29.1798 30.4148Z" fill="#C7E3D0"/>
<path d="M33.7459 27.5452C33.7459 28.1817 34.2585 28.4033 35.2664 28.6118L35.2621 28.614C36.6045 28.9159 37.178 29.4177 37.178 30.2931V30.3105C37.178 31.2989 36.3482 31.9897 35.16 31.9897C34.2368 31.9897 33.4787 31.6921 32.7749 31.0556L32.7379 31.0209L33.2093 30.4626L33.2506 30.4995C33.8697 31.0665 34.454 31.2989 35.1882 31.2989C35.9225 31.2989 36.4177 30.9275 36.4177 30.3735V30.3561C36.4177 29.8739 36.1918 29.5807 34.9623 29.3135C33.5438 29.005 32.9899 28.5249 32.9899 27.6017V27.5843C32.9899 26.659 33.8262 25.9617 34.9341 25.9617C35.7487 25.9617 36.3439 26.1702 36.989 26.6807L37.0281 26.7133L36.5872 27.2998L36.5459 27.265C36.0332 26.8479 35.5162 26.6524 34.9189 26.6524C34.2281 26.6524 33.7459 27.0109 33.7459 27.5279V27.5452Z" fill="#C7E3D0"/>
<path fill-rule="evenodd" clip-rule="evenodd" d="M2.33083 26.0442L0 31.8984H0.690778L1.29684 30.3539H4.23156L4.84631 31.8984H5.57184L3.23449 26.0442H2.33083ZM4.0013 29.774H1.5271L1.52275 29.7761L2.29173 27.8211L2.31171 27.769C2.34672 27.6777 2.38756 27.5712 2.43293 27.4496C2.48723 27.3063 2.54154 27.1586 2.59585 27.0108C2.65015 26.8631 2.6936 26.735 2.72836 26.6264H2.78918C2.82828 26.7219 2.86955 26.8305 2.913 26.95C2.92996 26.9967 2.9466 27.043 2.96316 27.0891C2.98899 27.1611 3.0147 27.2327 3.04116 27.3041C3.08461 27.4192 3.12371 27.5235 3.15629 27.6147C3.18464 27.6941 3.20806 27.7554 3.22512 27.8001L3.23232 27.8189L4.0013 29.774Z" fill="#C7E3D0"/>
<path d="M7.61182 31.8985V26.0443H8.27001L11.2656 30.089C11.3003 30.1281 11.3416 30.1824 11.3894 30.2519L11.4103 30.2813C11.4516 30.3395 11.494 30.3992 11.5349 30.4605C11.5827 30.5322 11.624 30.5952 11.6587 30.6516H11.7022V26.0421H12.3582V31.8963H11.7695L8.71532 27.7669L8.67252 27.7055C8.63545 27.6524 8.58703 27.5831 8.52851 27.4975C8.44379 27.3737 8.36993 27.2716 8.30694 27.1869H8.27218V31.8985H7.61182Z" fill="#C7E3D0"/>
<path fill-rule="evenodd" clip-rule="evenodd" d="M79.9435 32.0005C79.3397 32.0005 78.8205 31.8876 78.386 31.6638C77.9516 31.4401 77.6171 31.1012 77.3825 30.6516C77.15 30.2019 77.0327 29.6415 77.0327 28.9702C77.0327 28.299 77.15 27.7321 77.3825 27.2846C77.6149 26.8371 77.9494 26.5026 78.386 26.2766C78.8205 26.0529 79.3397 25.9399 79.9435 25.9399C80.5474 25.9399 81.0753 26.0529 81.5097 26.2766C81.9442 26.5004 82.2787 26.8371 82.509 27.2846C82.7392 27.7321 82.8544 28.2925 82.8544 28.9702C82.8544 29.648 82.7392 30.2019 82.509 30.6516C82.2787 31.1012 81.9464 31.4379 81.5097 31.6638C81.0753 31.8876 80.5518 32.0005 79.9435 32.0005ZM79.9435 31.4205C80.2802 31.4205 80.5844 31.3771 80.8559 31.288C81.1296 31.199 81.362 31.06 81.5554 30.8666C81.7487 30.6733 81.8986 30.4278 82.0028 30.1324C82.1071 29.837 82.1614 29.4807 82.1614 29.0658V28.8855C82.1614 28.4641 82.1093 28.1057 82.0028 27.8103C81.8986 27.5148 81.7487 27.2694 81.5554 27.076C81.362 26.8827 81.1296 26.7415 80.8559 26.6546C80.5822 26.5656 80.2781 26.5221 79.9435 26.5221C79.609 26.5221 79.3049 26.5656 79.0355 26.6546C78.7662 26.7437 78.5338 26.8849 78.3404 27.076C78.1471 27.2694 77.9972 27.5148 77.8929 27.8103C77.7887 28.1057 77.7344 28.4641 77.7344 28.8855V29.0658C77.7344 29.4807 77.7865 29.837 77.8929 30.1324C77.9972 30.4278 78.1471 30.6733 78.3404 30.8666C78.5338 31.06 78.7662 31.2011 79.0355 31.288C79.3049 31.3771 79.609 31.4205 79.9435 31.4205Z" fill="#C7E3D0"/>
<path d="M85.2937 31.892V31.8985L85.2915 31.892H85.2937Z" fill="#C7E3D0"/>
<path d="M85.2937 31.892V26.0443H86.3168L87.8439 30.0977C87.8787 30.1955 87.9112 30.2976 87.946 30.4084C87.9632 30.463 87.9798 30.5167 87.9959 30.5687L88.0437 30.7233L88.0547 30.7593C88.0804 30.8433 88.1021 30.9143 88.1154 30.9753H88.1676C88.1815 30.9236 88.1991 30.8665 88.2185 30.8035L88.2191 30.8018C88.2296 30.7674 88.2409 30.7309 88.2523 30.6929C88.2665 30.6454 88.2812 30.5984 88.2957 30.5518L88.2961 30.5505C88.3147 30.4909 88.333 30.4319 88.35 30.3736C88.3804 30.2693 88.4109 30.1759 88.4391 30.0955L89.9662 26.0421H90.9828V31.8963H90.3094V28.2513C90.3094 28.1101 90.3116 27.9494 90.3181 27.7691C90.3246 27.5909 90.329 27.415 90.3311 27.2434L90.3328 27.1202C90.3343 27.0079 90.3355 26.9182 90.3355 26.8502H90.2747C90.2529 26.9349 90.2225 27.037 90.1856 27.1521L90.1844 27.156C90.1479 27.272 90.1113 27.388 90.0748 27.5062C90.0379 27.6257 90.0031 27.7365 89.9684 27.8386L88.3978 31.892H87.8526L86.2907 27.8386C86.256 27.7473 86.2234 27.6474 86.1886 27.5388C86.1566 27.4385 86.1263 27.3346 86.0945 27.2252L86.0942 27.2241L86.0865 27.1978L86.0545 27.0865C86.0313 27.0057 86.0083 26.9254 85.9845 26.848H85.9236C85.9301 26.961 85.9345 27.1043 85.9367 27.2738C85.9377 27.3597 85.9394 27.4451 85.941 27.5306C85.9426 27.6157 85.9443 27.7008 85.9454 27.7864L85.9461 27.8463C85.948 27.9937 85.9497 28.1262 85.9497 28.247V31.892H85.2937Z" fill="#C7E3D0"/>
<path fill-rule="evenodd" clip-rule="evenodd" d="M93.7349 26.0442H96.6022C96.9998 26.0442 97.3299 26.1202 97.5884 26.2701C97.8469 26.42 98.0403 26.6264 98.1684 26.8892C98.2966 27.152 98.3596 27.4496 98.3596 27.7863C98.3596 28.123 98.2857 28.4424 98.138 28.7161C97.9903 28.9898 97.7861 29.2005 97.5233 29.3525C97.2604 29.5024 96.9607 29.5785 96.6196 29.5785H94.4083V31.9006H93.7349V26.0442ZM94.4083 28.9963H96.5675C96.8977 28.9963 97.1649 28.8898 97.369 28.677C97.5732 28.4641 97.6753 28.1687 97.6753 27.7929C97.6753 27.5474 97.6341 27.3389 97.5515 27.1651C97.469 26.9913 97.3452 26.8588 97.1801 26.7632C97.015 26.6698 96.8108 26.622 96.5653 26.622H94.4061V28.9941L94.4083 28.9963Z" fill="#C7E3D0"/>
<path fill-rule="evenodd" clip-rule="evenodd" d="M101.783 26.0442L99.4526 31.8984H100.143L100.749 30.3539H103.684L104.299 31.8984H105.024L102.687 26.0442H101.783ZM103.456 29.774H100.982L100.978 29.7761L101.747 27.8211L101.767 27.7689C101.802 27.6776 101.842 27.5712 101.888 27.4496C101.942 27.3063 101.996 27.1586 102.051 27.0108C102.105 26.8631 102.148 26.735 102.183 26.6264H102.244C102.283 26.7219 102.324 26.8305 102.368 26.95C102.384 26.9959 102.401 27.0415 102.417 27.0869L102.418 27.0894C102.444 27.1613 102.47 27.2327 102.496 27.3041C102.539 27.4192 102.579 27.5235 102.611 27.6147C102.639 27.6939 102.663 27.7551 102.68 27.7998L102.687 27.8189L103.456 29.774Z" fill="#C7E3D0"/>
<path d="M107.066 31.8985V26.0443H107.725L110.72 30.089C110.755 30.1281 110.796 30.1824 110.844 30.2519L110.865 30.2814C110.906 30.3393 110.949 30.3995 110.99 30.4605C111.037 30.5322 111.079 30.5952 111.113 30.6516H111.157V26.0421H111.813V31.8963H111.224L108.17 27.7669L108.127 27.7056C108.09 27.6524 108.042 27.5833 107.983 27.4975C107.898 27.3737 107.825 27.2716 107.762 27.1869H107.727V31.8985H107.066Z" fill="#C7E3D0"/>
<path d="M116.19 29.4482V31.8985H116.863V29.4482L119.194 26.0421H118.451L116.557 28.8508H116.522L114.619 26.0421H113.859L116.19 29.4482Z" fill="#C7E3D0"/>
<path d="M1.79004 14.5107C3.09557 15.1993 5.00933 15.7445 7.07949 15.7445C8.57617 15.7445 9.94687 15.2275 9.94687 14.0806C9.94687 13.1335 8.99107 12.5904 7.14248 11.7302C5.07232 10.7266 2.61767 9.23427 2.61767 6.53849C2.61767 2.43727 6.632 0 11.6043 0C14.4391 0 15.9705 0.486586 16.9893 0.947104L15.3015 5.02009C14.5998 4.70511 13.0076 4.15987 11.1916 4.21635C9.27998 4.21635 8.35677 4.90496 8.35677 5.73693C8.35677 6.56937 9.53344 7.16469 10.9629 7.88791L10.9642 7.88858C11.112 7.96335 11.2632 8.03981 11.4153 8.11772C13.996 9.32333 15.749 10.9004 15.749 13.1943C15.749 17.8972 11.3197 19.963 6.57335 19.963C3.22807 19.9066 1.06016 19.1897 0.00878906 18.5576L1.79221 14.5128L1.79004 14.5107Z" fill="#C7E3D0"/>
<path d="M42.8067 0.315002L41.2775 7.566H48.157L49.6863 0.315002H55.1647L51.0874 19.6329H45.6415L47.2664 11.9518H40.3543L38.7598 19.6329H33.314L37.3913 0.315002H42.8067Z" fill="#C7E3D0"/>
<path d="M62.9672 0.315002H57.5213L53.4766 19.6329H66.9815L67.846 15.4795H59.787L62.9672 0.315002Z" fill="#C7E3D0"/>
<path d="M83.2628 11.8367H75.7142L74.9496 15.4774H83.4214L82.5634 19.6329H68.6436L72.6883 0.315002H86.1628L85.2852 4.44229H77.2891L76.5745 7.71154H84.1535L83.2628 11.8367Z" fill="#C7E3D0"/>
<path d="M86.9248 4.44229H92.3077L89.1362 19.6329H94.5516L97.7557 4.44229H103.267L104.107 0.315002H87.8002L86.9248 4.44229Z" fill="#C7E3D0"/>
<path d="M110.268 4.44229H104.885L105.765 0.315002H122.074L121.225 4.44229H115.716L112.519 19.6329H107.103L110.268 4.44229Z" fill="#C7E3D0"/>
<path d="M126.736 11.8367H134.285L135.178 7.71154H127.596L128.311 4.44229H136.307L137.185 0.315002H123.71L119.666 19.6329H133.585L134.446 15.4774H125.972L126.736 11.8367Z" fill="#C7E3D0"/>
<path fill-rule="evenodd" clip-rule="evenodd" d="M152.84 19.5829H147.776L147.661 19.2028C147.355 18.1948 146.742 16.5939 145.843 14.4477C145.389 13.3703 144.916 12.6491 144.438 12.3037C144.305 12.2103 143.923 12.0452 142.952 12.0452H141.916L140.391 19.5807H135.67L139.572 0.308472H147.824C149.247 0.308472 150.337 0.46053 151.154 0.771162C152.012 1.09917 152.714 1.70306 153.233 2.56545C153.744 3.40611 154 4.43142 154 5.61095C154 7.28793 153.502 8.69556 152.521 9.79906C151.713 10.7071 150.566 11.3327 149.101 11.6672C149.353 11.9865 149.592 12.3449 149.823 12.7425C150.646 14.1935 151.567 16.2485 152.562 18.8552L152.84 19.5829ZM143.947 8.24156C146.278 8.24156 147.236 8.0656 147.629 7.91572C148.167 7.71152 148.576 7.40524 148.873 6.97947C149.171 6.55371 149.317 6.12795 149.317 5.67395C149.317 5.19822 149.147 4.86804 148.784 4.63561C148.708 4.58782 148.337 4.42273 146.997 4.42273H143.449L142.68 8.24156H143.947Z" fill="#C7E3D0"/>
<path d="M28.4064 15.7641C29.7098 15.7641 30.9023 15.6033 31.8647 15.3188L30.9436 19.6133C29.8901 19.8153 28.5606 19.95 26.9727 19.95C21.175 19.95 17.1606 16.7981 17.1606 11.6672C17.1606 6.99467 19.5175 3.66894 22.9258 1.80732C25.1567 0.573476 27.7374 0 30.6982 0C32.6423 0 34.1738 0.319322 35.0166 0.610404L34.0108 4.73118C33.47 4.5574 32.0688 4.18594 30.2528 4.18594C28.565 4.18594 27.0357 4.61605 25.8888 5.38937C24.2009 6.56456 23.054 8.51308 23.054 11.122C23.054 14.0436 25.0937 15.7641 28.4064 15.7641Z" fill="#C7E3D0"/>
</g>
<defs>
<clipPath id="clip0_1908_8170">
<rect width="154" height="32.0006" fill="white"/>
</clipPath>
</defs>
</svg>
