<svg width="2400" height="960" viewBox="0 0 2400 960" fill="none" xmlns="http://www.w3.org/2000/svg">
<g clip-path="url(#clip0_242_1163)">
<path d="M1628.16 681.6L1660.8 513.6L2159.04 398.4L1628.16 681.6Z" fill="#E3000B"/>
<path d="M781.44 278.4L748.8 446.4L240.96 564.48L781.44 278.4Z" fill="#E3000B"/>
<path d="M984 664.32L1128.96 630.72L1140.48 575.04L1067.52 591.36L1078.08 535.68L1151.04 519.36L1161.6 462.72L1089.6 480L1100.16 424.32L1173.12 407.04L1183.68 351.36L1037.76 384.96L984 664.32Z" fill="#E3000B"/>
<path d="M1177.92 619.2L1250.88 602.88L1272 490.56L1320.96 480L1298.88 591.36L1371.84 575.04L1425.6 295.68L1352.64 312.96L1331.52 424.32L1282.56 434.88L1304.64 323.52L1231.68 340.8L1177.92 619.2Z" fill="#E3000B"/>
<path d="M1419.84 563.52L1492.8 546.24L1519.68 409.92L1540.8 535.68L1613.76 518.4L1667.52 240L1595.52 256.32L1568.64 390.72L1546.56 267.84L1474.56 285.12L1419.84 563.52Z" fill="#E3000B"/>
<path d="M901.44 493.44C905.28 475.2 898.56 470.4 882.24 474.24L858.24 480L825.6 647.04L849.6 641.28C865.92 637.44 873.6 635.52 877.44 617.28L901.44 493.44ZM909.12 414.72C957.12 403.2 983.04 432.96 975.36 470.4L943.68 632.64C935.04 674.88 911.04 680.64 846.72 695.04L742.08 720L795.84 441.6L909.12 414.72Z" fill="#E3000B"/>
</g>
<defs>
<clipPath id="clip0_242_1163">
<rect width="1920" height="480" fill="white" transform="translate(240 240)"/>
</clipPath>
</defs>
</svg>
